<svg id="Layer_1" data-name="Layer 1" xmlns="http://www.w3.org/2000/svg" viewBox="0 0 480 361"><defs><style>.cls-1{fill:#fff;}</style></defs><title>Artboard 1</title><path class="cls-1" d="M86.11,159.14l0,72.87H70.32l0-57.72H46.17l0,57.71H30.39l0-57.71H19.35V159.09H30.43v-1.46c0-19.67,11-29.58,33-29.56A71.88,71.88,0,0,1,79.57,130v14.43a113.9,113.9,0,0,0-16.18-1.17c-11.66,0-17.2,3.77-17.2,14.41v1.46Z"/><path class="cls-1" d="M167.71,187.32l0,44.74H151.94l0-43.14C152,178,145.71,172,135.66,172c-11.08,0-18.52,6.84-18.53,21l0,39.06H101.37l0-72.87h15.74v9.32c4.81-7.43,12.25-11.21,22.6-11.2C156.51,157.29,167.72,168.66,167.71,187.32Z"/><path class="cls-1" d="M181.67,232.07l.07-106.39h15.74l-.07,106.39Z"/><path class="cls-1" d="M225.12,202.37c2.33,11.07,11.21,17.2,23.31,17.21,8.31,0,14.58-3.05,18.81-9l13,7.59C273.06,228.77,262.41,234,248.28,234c-11.81,0-21.43-3.66-28.71-10.81s-10.92-16.47-10.91-27.55,3.65-20,10.8-27.25,16.48-11.06,27.7-11.06c10.64,0,19.38,3.81,26.23,11.24a39,39,0,0,1,10.33,27.26,42.52,42.52,0,0,1-.59,6.56Zm42.71-12.8c-2.18-11.81-10.48-17.94-20.83-17.94-11.66,0-19.82,6.83-22,17.91Z"/><path class="cls-1" d="M352,159.31h15.74l-.05,72.87H351.9v-10.5c-6,8.31-14.44,12.38-25.51,12.38A34.13,34.13,0,0,1,300.75,223c-7.13-7.43-10.63-16.62-10.62-27.26s3.51-19.82,10.66-27.24a34.07,34.07,0,0,1,25.65-11.06c11.08,0,19.53,4.09,25.5,12.25Zm-23.07,59.74a22.45,22.45,0,0,0,16.48-6.55,23.14,23.14,0,0,0,6.57-16.76,22.55,22.55,0,0,0-6.55-16.62,23.59,23.59,0,0,0-32.94,0,22.56,22.56,0,0,0-6.57,16.61,23.1,23.1,0,0,0,6.55,16.77A22.44,22.44,0,0,0,328.88,219.05Z"/><path class="cls-1" d="M450,168.7c7.14,7.43,10.63,16.47,10.62,27.11s-3.51,19.82-10.66,27.25a34.07,34.07,0,0,1-25.65,11.06c-11.08,0-19.53-4.09-25.5-12.26l0,39.5H383.07l.07-102h15.74v10.49c6-8.3,14.44-12.38,25.52-12.37C434.44,157.47,442.89,161.26,450,168.7Zm-28.16,50.41a22.41,22.41,0,0,0,16.47-6.55,23.06,23.06,0,0,0,6.57-16.76,22.51,22.51,0,0,0-6.55-16.62,23.58,23.58,0,0,0-32.93,0,22.49,22.49,0,0,0-6.57,16.61,23.06,23.06,0,0,0,6.54,16.77A22.47,22.47,0,0,0,421.87,219.11Z"/><path class="cls-1" d="M320.4,75.54a55,55,0,0,0-2.75-29.42c-10.22-23.68-31.12-26.61-33.4-27.27l-.6-.16a141.39,141.39,0,0,0-53.77,3.16l-7,2.38a2.29,2.29,0,0,1-1.19.07c-6.45-1.4-29.2-5.67-47.13-.89a2.23,2.23,0,0,0-.31,4.2c4.8,2,10,6.62,8.08,17.33a2.31,2.31,0,0,1-.86,1.38c-28.57,21.8-41.53,53.5-46.48,69.18a2.22,2.22,0,0,0,3.76,2.16c79.36-87.49,174.25-28.74,174-29a3.07,3.07,0,0,0,.34.14,5.44,5.44,0,0,0,1.84.59,5.29,5.29,0,0,0,5.65-3.56,3.31,3.31,0,0,0,.12-.42v0c0-.19.05-.29.08-.48a7,7,0,0,0,.05-.78,22.73,22.73,0,0,0-.4-7.61A2.27,2.27,0,0,1,320.4,75.54Z"/><path class="cls-1" d="M56.53,290.23a22.4,22.4,0,0,1,5.7,15.3c0,.58-.08,1.49-.16,2.57H25.76c1.07,8.35,7.61,13.65,16.46,13.65,6.28,0,11-2.82,13.31-7l4.8,2.82C56.69,323.4,50.16,327,42.13,327c-6.53,0-11.82-2.07-15.88-6.12a22.82,22.82,0,0,1-.08-31c4-4.13,9.18-6.2,15.55-6.2C47.84,283.7,52.8,285.85,56.53,290.23ZM25.76,302.8H56.61c-.58-4.38-2.24-7.77-5-10.17A14.78,14.78,0,0,0,41.72,289C33.12,289,26.83,294.62,25.76,302.8Z"/><path class="cls-1" d="M106.51,300.65v25.4h-5.46v-25.4c0-7.36-4-11.66-11.25-11.66-7.94,0-13.4,4.88-13.4,15.39v21.67H70.94V284.69H76.4v6.45Q81,283.7,90.3,283.7C100.3,283.7,106.51,290.32,106.51,300.65Z"/><path class="cls-1" d="M152.69,284.69h5.45v39.7c0,6-2.06,10.67-6.11,14.06a22.14,22.14,0,0,1-14.65,5.13c-9.67,0-16.21-3.39-19.6-10.09l4.8-2.73c2.48,5,7.44,7.53,14.8,7.53,9.52,0,15.31-5.38,15.31-13.9v-6.45c-3.81,6-9.35,9.1-16.71,9.1a20.63,20.63,0,0,1-15.14-6.29,22.18,22.18,0,0,1,0-30.76A20.63,20.63,0,0,1,136,283.7c7.36,0,12.9,3.06,16.71,9.1Zm-16.3,37.06A15.8,15.8,0,0,0,148,317a16.07,16.07,0,0,0,4.72-11.66A15.76,15.76,0,0,0,148,293.79a16.37,16.37,0,0,0-23.16,0,15.79,15.79,0,0,0-4.71,11.58A16.1,16.1,0,0,0,124.81,317,15.81,15.81,0,0,0,136.39,321.75Z"/><path class="cls-1" d="M169.67,274.77a4,4,0,1,1,5.62,0A4,4,0,0,1,169.67,274.77Zm.08,51.28V284.69h5.46v41.36Z"/><path class="cls-1" d="M222.36,300.65v25.4H216.9v-25.4c0-7.36-4.05-11.66-11.24-11.66-7.94,0-13.4,4.88-13.4,15.39v21.67H186.8V284.69h5.46v6.45q4.59-7.44,13.89-7.44C216.16,283.7,222.36,290.32,222.36,300.65Z"/><path class="cls-1" d="M266.89,290.23a22.4,22.4,0,0,1,5.71,15.3c0,.58-.09,1.49-.17,2.57H236.12c1.08,8.35,7.61,13.65,16.46,13.65,6.28,0,11-2.82,13.31-7l4.8,2.82c-3.64,5.87-10.17,9.51-18.19,9.51-6.54,0-11.83-2.07-15.88-6.12a22.82,22.82,0,0,1-.08-31c4.05-4.13,9.17-6.2,15.54-6.2C258.2,283.7,263.17,285.85,266.89,290.23ZM236.12,302.8H267c-.58-4.38-2.23-7.77-5.05-10.17a14.76,14.76,0,0,0-9.84-3.64C243.48,289,237.2,294.62,236.12,302.8Z"/><path class="cls-1" d="M315.22,290.23a22.4,22.4,0,0,1,5.7,15.3c0,.58-.08,1.49-.16,2.57H284.45c1.07,8.35,7.61,13.65,16.46,13.65,6.28,0,11-2.82,13.31-7l4.8,2.82c-3.64,5.87-10.17,9.51-18.2,9.51-6.53,0-11.82-2.07-15.88-6.12a22.85,22.85,0,0,1-.08-31c4.05-4.13,9.18-6.2,15.55-6.2C306.53,283.7,311.49,285.85,315.22,290.23ZM284.45,302.8H315.3c-.58-4.38-2.24-7.77-5.05-10.17a14.78,14.78,0,0,0-9.84-3.64C291.81,289,285.52,294.62,284.45,302.8Z"/><path class="cls-1" d="M335.09,291.55c2.57-5,6.87-7.52,13.07-7.52v5.29c-7.53,0-13.07,4.22-13.07,13.73v23h-5.46V284.69h5.46Z"/><path class="cls-1" d="M355.54,274.77a4,4,0,1,1,5.62,0A3.94,3.94,0,0,1,355.54,274.77Zm.08,51.28V284.69h5.46v41.36Z"/><path class="cls-1" d="M408.23,300.65v25.4h-5.46v-25.4c0-7.36-4-11.66-11.24-11.66-7.94,0-13.4,4.88-13.4,15.39v21.67h-5.46V284.69h5.46v6.45q4.58-7.44,13.89-7.44C402,283.7,408.23,290.32,408.23,300.65Z"/><path class="cls-1" d="M454.41,284.69h5.46v39.7c0,6-2.07,10.67-6.12,14.06a22.13,22.13,0,0,1-14.64,5.13c-9.68,0-16.21-3.39-19.61-10.09l4.8-2.73c2.48,5,7.44,7.53,14.81,7.53,9.51,0,15.3-5.38,15.3-13.9v-6.45c-3.81,6-9.35,9.1-16.71,9.1a20.59,20.59,0,0,1-15.13-6.29,22.15,22.15,0,0,1,0-30.76,20.59,20.59,0,0,1,15.13-6.29c7.36,0,12.9,3.06,16.71,9.1Zm-16.3,37.06A15.8,15.8,0,0,0,449.69,317a16.07,16.07,0,0,0,4.72-11.66,15.76,15.76,0,0,0-4.72-11.58,16.36,16.36,0,0,0-23.15,0,15.76,15.76,0,0,0-4.72,11.58A16.07,16.07,0,0,0,426.54,317,15.79,15.79,0,0,0,438.11,321.75Z"/></svg>