<?xml version="1.0" standalone="no"?>
<!DOCTYPE svg PUBLIC "-//W3C//DTD SVG 20010904//EN"
 "http://www.w3.org/TR/2001/REC-SVG-20010904/DTD/svg10.dtd">
<svg version="1.0" xmlns="http://www.w3.org/2000/svg"
 width="4763.000000pt" height="4763.000000pt" viewBox="0 0 4763.000000 4763.000000"
 preserveAspectRatio="xMidYMid meet">
<metadata>
Created by potrace 1.11, written by Peter Selinger 2001-2013
</metadata>
<g transform="translate(0.000000,4763.000000) scale(0.100000,-0.100000)"
fill="#000000" stroke="none">
<path d="M33107 36713 c-1 0 -191 -4 -422 -8 -231 -4 -447 -9 -480 -10 -33 -1
-148 -5 -255 -9 -107 -4 -224 -9 -260 -11 -36 -2 -121 -6 -190 -9 -124 -6
-239 -12 -375 -21 -38 -2 -113 -7 -165 -10 -52 -4 -120 -8 -150 -10 -30 -2
-93 -7 -140 -10 -119 -8 -206 -15 -270 -20 -66 -6 -139 -12 -240 -20 -41 -3
-91 -8 -110 -10 -19 -2 -69 -7 -110 -10 -41 -3 -91 -8 -110 -10 -19 -2 -66 -7
-105 -10 -38 -3 -86 -8 -105 -10 -19 -3 -64 -7 -100 -10 -36 -3 -103 -10 -150
-15 -47 -6 -107 -13 -135 -16 -27 -3 -61 -7 -75 -9 -14 -2 -56 -7 -95 -11 -38
-3 -77 -8 -85 -9 -8 -1 -44 -6 -80 -10 -36 -3 -76 -8 -90 -10 -14 -2 -50 -6
-80 -10 -48 -5 -85 -10 -235 -30 -16 -2 -52 -7 -80 -10 -27 -4 -61 -8 -75 -10
-14 -2 -45 -6 -70 -10 -46 -6 -174 -23 -220 -30 -14 -2 -61 -9 -105 -15 -44
-6 -93 -14 -110 -16 -16 -3 -41 -7 -55 -9 -14 -2 -45 -7 -70 -10 -25 -3 -52
-8 -60 -10 -8 -2 -37 -6 -65 -10 -27 -3 -88 -12 -135 -20 -47 -8 -103 -17
-125 -20 -22 -3 -62 -10 -90 -15 -27 -5 -70 -12 -95 -15 -25 -4 -130 -22 -235
-40 -104 -19 -206 -37 -225 -40 -99 -16 -432 -80 -630 -121 -124 -25 -238 -48
-255 -50 -16 -3 -46 -9 -65 -14 -19 -5 -51 -12 -70 -15 -19 -3 -51 -10 -70
-15 -19 -5 -71 -17 -115 -26 -44 -9 -87 -18 -95 -19 -8 -2 -48 -11 -89 -20
-41 -9 -78 -18 -82 -21 -4 -2 -20 -6 -36 -8 -15 -2 -77 -16 -138 -31 -148 -36
-146 -35 -175 -41 -14 -2 -32 -7 -40 -10 -8 -3 -26 -8 -40 -10 -34 -7 -313
-80 -435 -115 -87 -25 -494 -159 -535 -176 -8 -3 -17 -7 -20 -8 -47 -14 -147
-47 -530 -178 -250 -85 -462 -157 -470 -160 -167 -58 -328 -109 -377 -121 -94
-21 -185 -12 -468 47 -143 31 -298 63 -345 72 -47 9 -94 19 -105 21 -11 2 -36
7 -55 10 -56 10 -212 40 -265 50 -40 8 -301 54 -339 60 -21 3 -48 8 -60 10
-11 2 -91 16 -176 30 -85 14 -166 27 -180 29 -14 3 -36 7 -50 9 -14 3 -43 8
-65 11 -62 9 -231 34 -330 50 -49 8 -112 17 -140 20 -63 8 -106 15 -125 20 -8
2 -40 6 -70 10 -30 3 -66 7 -80 10 -31 5 -161 23 -217 30 -130 16 -191 24
-233 30 -14 2 -50 6 -80 10 -30 4 -66 8 -80 10 -14 2 -54 7 -90 10 -36 4 -72
8 -80 10 -8 1 -49 6 -90 10 -41 4 -82 9 -90 10 -8 2 -49 6 -90 10 -41 4 -82 9
-91 10 -9 2 -54 6 -100 10 -46 3 -91 8 -99 10 -8 2 -49 7 -90 10 -41 4 -88 9
-105 10 -34 4 -128 13 -225 21 -36 2 -85 7 -110 10 -25 3 -76 7 -115 10 -38 2
-95 6 -125 9 -152 13 -282 22 -413 30 -51 3 -116 8 -144 10 -29 3 -106 7 -170
11 -65 3 -145 7 -178 9 -33 2 -127 6 -210 10 -82 3 -190 8 -240 10 -658 31
-1848 21 -2475 -20 -80 -5 -246 -15 -320 -20 -84 -5 -221 -16 -255 -20 -16 -2
-70 -6 -120 -10 -49 -4 -97 -8 -106 -10 -8 -2 -55 -6 -105 -10 -49 -4 -97 -9
-106 -11 -10 -1 -50 -6 -90 -9 -39 -3 -74 -8 -77 -9 -3 -2 -42 -7 -85 -11 -43
-4 -87 -8 -96 -10 -9 -2 -41 -6 -71 -10 -30 -3 -133 -17 -229 -31 -238 -34
-233 -33 -335 -50 -49 -8 -103 -17 -120 -20 -16 -2 -57 -9 -90 -15 -33 -6 -73
-13 -90 -15 -16 -3 -52 -9 -80 -15 -27 -5 -61 -11 -75 -14 -14 -3 -36 -7 -50
-10 -14 -3 -36 -7 -50 -10 -14 -3 -50 -10 -80 -16 -30 -5 -66 -12 -80 -15 -14
-3 -33 -7 -42 -10 -10 -3 -30 -8 -45 -10 -187 -34 -713 -168 -778 -198 -360
-169 -441 -662 -152 -929 64 -59 100 -79 358 -196 457 -208 898 -539 1196
-896 41 -49 83 -100 93 -112 10 -12 23 -30 29 -41 6 -11 17 -26 23 -34 7 -7
36 -47 63 -88 239 -360 419 -807 494 -1235 6 -33 13 -71 16 -84 2 -12 7 -43 9
-67 3 -24 8 -54 11 -66 18 -85 38 -403 38 -613 1 -156 -10 -438 -18 -486 -2
-13 -6 -55 -10 -94 -8 -93 -14 -142 -31 -256 -7 -53 -16 -116 -19 -140 -3 -24
-8 -55 -11 -69 -3 -14 -7 -38 -9 -54 -12 -78 -64 -188 -124 -261 -36 -44 -69
-74 -151 -136 -92 -70 -539 -422 -650 -513 -138 -113 -421 -347 -430 -356 -3
-3 -86 -75 -185 -160 -99 -85 -193 -166 -210 -181 -27 -24 -175 -155 -264
-234 -18 -17 -43 -39 -55 -50 -12 -11 -60 -55 -107 -97 -47 -43 -99 -90 -115
-105 -70 -65 -325 -305 -413 -388 -230 -216 -1092 -1089 -1201 -1215 -12 -14
-43 -47 -69 -75 -26 -27 -101 -108 -166 -180 -65 -71 -125 -137 -134 -146 -9
-9 -39 -43 -67 -75 -29 -32 -62 -71 -75 -85 -25 -27 -66 -73 -164 -184 -33
-37 -64 -73 -70 -79 -11 -13 -119 -138 -151 -176 -12 -14 -51 -59 -86 -100
-35 -41 -136 -160 -222 -265 -87 -104 -168 -201 -180 -215 -16 -19 -314 -391
-393 -490 -211 -265 -521 -673 -751 -990 -51 -69 -95 -129 -100 -135 -15 -20
-245 -343 -369 -520 -135 -192 -582 -857 -699 -1040 -39 -60 -102 -158 -140
-218 -38 -59 -76 -118 -84 -132 -8 -13 -44 -71 -79 -127 -283 -455 -621 -1019
-621 -1037 0 -6 -4 -11 -10 -11 -5 0 -10 -4 -10 -9 0 -7 -87 -163 -140 -251
-16 -27 -133 -234 -156 -275 -11 -22 -31 -58 -44 -80 -55 -96 -223 -404 -290
-530 -21 -38 -52 -97 -70 -130 -34 -64 -123 -233 -225 -430 -145 -280 -475
-945 -584 -1179 -18 -37 -61 -129 -97 -203 -35 -74 -64 -136 -64 -138 0 -3
-25 -57 -55 -120 -30 -64 -55 -118 -55 -120 0 -2 -18 -43 -41 -92 -22 -48 -49
-106 -59 -128 -59 -134 -131 -296 -148 -335 -21 -47 -135 -313 -178 -415 -14
-33 -33 -75 -41 -94 -36 -80 -180 -430 -283 -688 -61 -153 -115 -287 -120
-298 -4 -11 -13 -33 -19 -50 -5 -16 -33 -88 -61 -160 -57 -146 -261 -690 -290
-775 -11 -30 -33 -93 -50 -140 -49 -134 -95 -265 -195 -555 -51 -148 -95 -277
-98 -285 -20 -55 -179 -556 -192 -605 -15 -59 -21 -183 -10 -238 21 -109 78
-211 164 -295 190 -185 485 -221 697 -84 71 46 76 51 324 321 107 117 110 121
264 286 61 65 122 131 136 146 211 227 613 641 971 998 397 398 569 565 989
961 26 25 279 262 310 290 21 20 223 203 330 300 47 43 153 137 235 210 83 73
168 149 190 169 47 43 168 148 209 182 16 13 34 29 40 34 28 27 441 378 500
425 10 8 23 20 30 26 6 5 139 115 296 243 157 128 294 240 305 250 11 9 51 40
89 69 37 30 75 60 85 68 34 28 270 213 351 274 47 36 87 67 90 70 14 16 496
376 815 610 216 158 644 461 850 600 44 30 82 57 85 60 3 3 13 10 22 15 9 6
122 80 250 166 220 147 326 217 563 370 104 68 292 187 323 204 9 6 44 28 77
49 33 22 69 44 80 50 11 6 60 36 108 66 97 61 92 57 262 160 122 74 551 326
615 362 19 11 141 80 271 154 130 74 239 134 243 134 3 0 23 11 44 23 20 13
73 43 117 67 44 24 105 56 135 73 139 75 282 150 555 292 174 91 678 343 810
405 50 24 137 65 195 92 128 61 254 119 540 250 334 153 865 379 1250 533 135
53 259 103 275 111 28 12 184 72 280 107 22 8 90 33 150 56 139 53 317 118
515 188 85 30 196 70 245 87 304 109 1340 440 1475 471 8 2 78 22 155 45 77
23 174 50 215 61 41 11 122 34 180 50 58 17 113 32 124 34 10 3 44 12 75 21
31 9 64 18 74 20 32 7 51 12 312 79 143 37 267 68 275 70 8 2 74 17 145 35 72
17 191 45 265 62 74 16 173 39 220 49 93 21 221 48 260 56 14 2 50 10 80 18
30 7 73 16 95 21 22 4 45 8 50 10 16 4 637 125 665 130 14 2 41 7 60 10 19 4
44 8 55 9 33 5 89 15 105 20 8 2 33 6 55 10 22 3 47 8 55 10 8 3 31 7 50 9 19
2 76 11 125 20 50 9 108 18 130 21 22 3 51 8 65 11 55 10 67 12 110 18 25 3
54 8 65 10 11 2 43 7 70 10 28 4 57 9 65 11 8 2 38 6 65 10 43 5 94 12 205 30
14 2 49 7 79 10 30 4 61 8 70 10 9 1 39 6 66 9 28 4 61 9 75 11 14 2 45 7 70
9 65 8 130 16 170 22 19 3 55 7 80 10 25 2 59 6 77 9 17 2 73 9 125 15 111 12
172 20 213 25 17 2 62 7 100 10 39 4 81 8 95 10 14 2 57 7 95 10 39 4 81 8 95
10 14 3 61 7 105 10 44 3 91 8 105 10 14 2 66 7 115 10 50 3 106 8 125 11 19
2 64 6 100 9 36 3 92 7 125 9 33 3 98 8 145 11 47 3 110 8 140 10 52 5 118 9
310 20 47 3 126 7 175 10 835 50 2289 64 3030 30 55 -2 168 -7 250 -10 197 -7
340 -14 445 -20 47 -3 120 -8 162 -10 227 -14 295 -18 468 -30 41 -2 98 -7
125 -10 28 -2 86 -7 130 -10 78 -5 134 -10 245 -20 30 -3 89 -7 130 -10 41 -3
89 -8 105 -10 17 -2 60 -7 95 -10 36 -3 81 -8 100 -10 19 -2 71 -7 115 -11 44
-3 87 -7 95 -9 8 -2 49 -6 90 -10 41 -4 89 -9 105 -11 17 -2 55 -6 85 -9 30
-3 69 -7 86 -10 17 -2 57 -7 90 -10 32 -4 70 -8 84 -10 14 -3 48 -7 75 -10 28
-3 86 -10 130 -16 44 -5 96 -12 115 -14 146 -18 203 -26 220 -30 8 -2 46 -7
84 -10 38 -3 72 -8 75 -9 3 -2 31 -7 62 -10 31 -4 66 -8 76 -10 11 -3 44 -7
73 -11 29 -4 60 -8 69 -10 9 -1 39 -6 66 -9 28 -4 93 -14 145 -22 52 -9 106
-17 120 -19 61 -8 122 -17 225 -35 61 -10 133 -22 160 -26 28 -4 52 -8 55 -9
3 0 27 -4 53 -9 27 -4 59 -9 70 -12 12 -2 63 -11 112 -19 88 -15 116 -20 173
-30 15 -3 42 -8 61 -11 18 -3 43 -8 55 -10 33 -6 128 -24 161 -29 17 -3 53
-10 80 -15 63 -13 350 -69 384 -75 14 -3 40 -7 56 -11 17 -3 71 -14 120 -24
50 -11 101 -21 115 -24 24 -4 82 -17 180 -38 25 -5 56 -11 70 -14 14 -2 43 -8
65 -14 22 -5 155 -35 295 -66 140 -30 262 -57 270 -59 59 -13 391 -92 510
-121 80 -20 152 -37 160 -39 8 -2 44 -11 80 -20 36 -9 72 -18 80 -20 20 -5
269 -69 345 -90 33 -9 67 -18 75 -20 14 -3 99 -26 225 -60 28 -7 93 -25 145
-39 52 -14 174 -48 270 -76 96 -28 184 -52 195 -55 29 -7 392 -113 445 -131
25 -8 162 -50 305 -93 464 -141 1172 -375 1655 -547 255 -91 293 -105 330
-119 19 -8 134 -51 255 -96 296 -109 821 -311 920 -354 17 -7 163 -67 325
-133 162 -66 396 -164 520 -217 124 -53 254 -109 290 -125 36 -15 90 -39 120
-52 30 -14 143 -65 250 -113 107 -48 222 -100 255 -115 161 -74 394 -184 525
-246 174 -82 898 -444 1025 -512 50 -26 140 -74 200 -106 193 -103 281 -151
530 -291 426 -240 634 -308 935 -309 447 0 866 226 1120 603 86 128 176 351
195 486 4 22 8 51 11 65 2 14 6 72 9 130 3 58 7 125 10 150 25 249 26 1036 1
1190 -2 14 -7 61 -11 105 -4 44 -9 91 -11 105 -2 14 -6 39 -9 55 -2 17 -7 48
-10 70 -3 22 -10 63 -15 90 -5 28 -12 61 -14 75 -2 14 -10 48 -16 75 -6 28
-14 61 -16 75 -3 14 -10 43 -16 65 -9 38 -12 120 -4 175 3 21 17 104 21 120 1
3 5 25 9 50 5 25 10 54 12 65 12 63 46 267 50 305 3 25 7 56 9 70 2 14 7 48
11 75 3 28 8 59 10 70 4 22 12 85 18 151 3 23 7 61 10 85 5 41 9 71 20 174 3
22 7 76 11 120 3 44 8 100 10 125 2 25 7 88 10 140 3 52 7 113 10 135 28 295
23 1303 -9 1710 -3 39 -8 111 -11 160 -3 50 -8 101 -10 115 -2 14 -6 65 -10
113 -4 49 -8 98 -10 110 -2 12 -6 54 -10 92 -3 39 -8 84 -10 100 -3 17 -7 53
-10 80 -3 28 -7 64 -10 80 -3 17 -7 50 -10 75 -3 25 -7 61 -10 80 -2 19 -7 58
-11 85 -10 77 -18 130 -34 225 -11 64 -21 127 -25 155 -1 11 -7 47 -13 80 -6
33 -14 76 -17 95 -3 19 -15 82 -26 140 -12 58 -23 119 -26 135 -2 17 -20 102
-39 190 -44 202 -43 194 -50 230 -10 49 -123 504 -143 575 -10 36 -28 101 -41
145 -66 240 -179 590 -266 822 -125 336 -438 1001 -659 1398 -18 33 -45 83
-61 110 -31 57 -154 268 -193 333 -14 24 -30 51 -36 61 -152 261 -608 922
-786 1139 -5 7 -47 58 -91 115 -80 100 -277 336 -307 368 -9 9 -43 48 -76 85
-122 140 -283 310 -471 498 -101 101 -173 170 -334 321 -45 42 -209 186 -345
304 -60 51 -232 190 -355 284 -69 53 -130 101 -136 106 -6 5 -75 56 -155 113
-407 295 -861 579 -1309 817 -176 94 -681 341 -697 341 -2 0 -32 13 -68 30
-231 108 -669 277 -1040 401 -241 81 -673 207 -837 245 -22 5 -29 7 -153 38
-55 14 -163 39 -240 56 -77 17 -210 49 -295 70 -85 22 -191 44 -235 50 -44 6
-91 13 -105 15 -21 3 -162 22 -305 40 -16 2 -51 6 -76 10 -25 3 -65 8 -90 11
-24 2 -78 9 -119 14 -41 5 -97 12 -125 15 -111 11 -161 17 -180 20 -11 2 -56
6 -100 10 -44 4 -91 8 -105 11 -14 2 -59 6 -100 9 -41 4 -85 8 -98 10 -13 2
-65 7 -115 10 -51 4 -103 8 -116 10 -14 3 -63 7 -110 11 -47 3 -102 7 -121 9
-19 2 -78 6 -130 9 -52 4 -113 9 -135 11 -22 2 -80 7 -130 10 -49 3 -121 7
-160 10 -38 3 -115 7 -170 10 -55 3 -143 8 -195 11 -52 3 -135 7 -185 9 -49 2
-160 6 -245 10 -230 10 -289 12 -720 20 -376 7 -880 12 -883 8z"/>
</g>
</svg>
