<svg width="30" height="24" viewBox="0 0 30 24" fill="none" xmlns="http://www.w3.org/2000/svg">
<path d="M29.9413 2.85805C28.835 3.33665 27.6538 3.66269 26.4101 3.81155C27.6776 3.05982 28.6526 1.87502 29.1138 0.461373C27.9251 1.1442 26.6076 1.64126 25.2052 1.91808C24.0852 0.738197 22.4891 0 20.7166 0C17.3205 0 14.5669 2.71041 14.5669 6.04952C14.5669 6.52935 14.6231 6.99072 14.7256 7.43241C9.61335 7.19496 5.08229 4.77859 2.04991 1.12575C1.51619 2.01405 1.21745 3.04629 1.21745 4.17081C1.21745 6.27467 2.3049 8.12385 3.95234 9.21023C2.94363 9.17824 1.99492 8.90511 1.16745 8.45235V8.5274C1.16745 11.4617 3.28361 13.9089 6.09975 14.4662C5.58352 14.6028 5.03854 14.6766 4.47981 14.6766C4.08733 14.6766 3.7111 14.6397 3.33486 14.5708C4.12358 16.9736 6.39098 18.7256 9.08962 18.7748C6.98971 20.3976 4.32857 21.3646 1.46244 21.3646C0.974959 21.3646 0.48873 21.3363 0 21.2822C2.73614 22.9973 5.95975 24 9.44586 24C20.7629 24 26.9439 14.7775 26.9439 6.79264C26.9439 6.5355 26.9439 6.2759 26.9251 6.01753C28.1263 5.16984 29.175 4.09822 30 2.88266L29.9413 2.85805Z" fill="white"/>
</svg>
